<svg xmlns="http://www.w3.org/2000/svg" width="512" height="512" viewBox="0 0 512 512" data-svgdocument="" id="_4fN9UxKrq7OgvwCTpOXNj" class="fl-svgdocument" style="overflow: visible;" x="0" y="0" xmlns:xlink="http://www.w3.org/1999/xlink"><defs id="_7w4QesUQHrEp37kJ4Q_Jf" transform="matrix(1.0470644465292012, 0, 0, 1.0470644465292012, -24.096993724208257, -13.040115801825626)"></defs><g id="_u7TyJ2qnQN_wikLK7_Es8" transform="matrix(1.11253, 0, 0, 1.11253, -41.3419, 31.5226)"><path id="_jKuco_Vwu0J-Z-YVGuoUs" fill="#000000" d="M80.435,36.56c0-16.782-13.653-30.436-30.432-30.436c-16.784,0-30.438,13.654-30.438,30.436h10.956   c0-10.74,8.74-19.479,19.482-19.479c10.736,0,19.476,8.739,19.476,19.479H80.435z" stroke="none" transform="matrix(2.7984442710876465, 0, 0, 2.7984442710876465, 131.62515258789062, -2.326896905899048)"></path><rect id="_QjNaR2f8FssfEyd7B30GO" x="19.565" y="50.561" fill="#000000" width="10.956" height="44.439" stroke="none" transform="matrix(2.7984442710876465, 0, 0, 2.7984442710876465, 131.62464904785156, -3.5470287799835205)"></rect><rect id="_f-Ffd3PpC-CKWFJImGmtA" x="69.479" y="50.561" fill="#000000" width="10.956" height="44.439" stroke="none" transform="matrix(2.7984442710876465, 0, 0, 2.7984442710876465, 129.07000732421875, -3.5470287799835205)"></rect><path id="_jfEiJnHjoYgsWvGgMhWdx" fill="#31d488" d="M30.37,40.213H19.717c-1.934,0-3.5,1.567-3.5,3.5c0,1.934,1.566,3.502,3.5,3.502H30.37   c1.936,0,3.501-1.568,3.501-3.502C33.871,41.78,32.305,40.213,30.37,40.213z" stroke="none" transform="matrix(2.7984442710876465, 0, 0, 2.7984442710876465, 131.1990966796875, -3.973430871963501)"></path><path id="_A70e_2h6Kw1YzxJqI9FoT" fill="#31d488" d="M80.281,40.213H69.63c-1.934,0-3.501,1.567-3.501,3.5c0,1.934,1.567,3.502,3.501,3.502h10.651   c1.935,0,3.502-1.568,3.502-3.502C83.783,41.78,82.216,40.213,80.281,40.213z" stroke="none" transform="matrix(2.7984442710876465, 0, 0, 2.7984442710876465, 128.65005493164062, -3.973430871963501)"></path><path id="_-9xsgVQ1YqNNRMonmbOo0" d="M75.125,76.016L64.33,57.561c1.274-0.878,2.48-1.873,3.598-2.99c0.706-0.706,0.706-1.851,0-2.557  c-0.705-0.707-1.852-0.707-2.557,0c-0.896,0.896-1.866,1.687-2.881,2.402l-7.265-12.42c1.394-1.36,2.263-3.256,2.263-5.353  c0-3.504-2.423-6.445-5.68-7.258v-6.314c0-0.998-0.811-1.809-1.809-1.809s-1.809,0.811-1.809,1.809v6.314  c-3.256,0.813-5.68,3.754-5.68,7.258c0,2.097,0.869,3.992,2.263,5.354L37.51,54.416c-1.014-0.716-1.984-1.507-2.879-2.402  c-0.707-0.707-1.852-0.707-2.558,0c-0.706,0.706-0.706,1.851-0.001,2.557c1.118,1.117,2.324,2.112,3.599,2.989L24.875,76.016  c-0.504,0.862-0.215,1.97,0.647,2.474c0.287,0.168,0.601,0.248,0.911,0.248c0.621,0,1.227-0.32,1.563-0.896L38.789,59.39  c2.916,1.44,6.096,2.305,9.402,2.537v1.172c0,0.999,0.811,1.809,1.809,1.809s1.809-0.81,1.809-1.809v-1.172  c3.307-0.232,6.487-1.096,9.402-2.536l10.793,18.451c0.336,0.575,0.94,0.896,1.563,0.896c0.31,0,0.624-0.08,0.911-0.248  C75.34,77.985,75.63,76.878,75.125,76.016z M50,32.772c2.135,0,3.871,1.736,3.871,3.871S52.135,40.515,50,40.515  s-3.871-1.736-3.871-3.871S47.865,32.772,50,32.772z M51.809,58.293v-1.014c0-0.999-0.811-1.809-1.809-1.809  s-1.809,0.81-1.809,1.809v1.014c-2.653-0.218-5.201-0.921-7.561-2.051l7.264-12.417c0.668,0.195,1.374,0.307,2.105,0.307  s1.438-0.111,2.106-0.307l7.263,12.417C57.011,57.372,54.462,58.075,51.809,58.293z" stroke="none" fill="#31d488" transform="matrix(3.6013710498809814, 0, 0, 3.6013710498809814, 90.20350646972656, -17.069507598876953)"></path></g><path text="EduARd" text-anchor="middle" font-size="100" letter-spacing="0" side="left" offset="0.5" dx="0" dy="0" space="preserve" href="" font-family="Squada One" font-scale="contain" transform="matrix(1.5944031476974487, 0, 0, 1.5944031476974487, 255.68112182617188, 462.4056091308594)" x="0" y="0" fill="#31d488" data-fl-textpath="" id="_20mRHNWtAfDOf-QXsAt6F" d="M-115-27.1L-115-11.6L-99.5-11.6L-99.5 0L-129 0L-129-64.7L-99.5-64.7L-99.5-53.3L-115-53.3L-115-38.1L-100.5-38.1L-100.5-27.1L-115-27.1ZM-79.5-49.8L-77.4-49.8Q-72.30000000000001-49.8 -69.2-47.4L-69.2-47.4L-69.2-64.7L-55.800000000000004-64.7L-55.800000000000004 0L-67.10000000000001 0L-67.10000000000001-3.6Q-70.2 1 -77.4 1L-77.4 1L-79.5 1Q-91.9 1 -91.9-12.2L-91.9-12.2L-91.9-36.6Q-91.9-49.8 -79.5-49.8L-79.5-49.8ZM-69.2-10.6L-69.2-10.6L-69.2-38.2Q-69.2-39 -69.75-39.6Q-70.30000000000001-40.2 -71.10000000000001-40.2L-71.10000000000001-40.2L-76.60000000000001-40.2Q-77.4-40.2 -77.95-39.6Q-78.5-39 -78.5-38.2L-78.5-38.2L-78.5-10.6Q-78.5-9.8 -77.95-9.2Q-77.4-8.6 -76.60000000000001-8.6L-76.60000000000001-8.6L-71.10000000000001-8.6Q-70.30000000000001-8.6 -69.75-9.2Q-69.2-9.8 -69.2-10.6ZM-24.000000000000004-10.6L-24.000000000000004-48.8L-10.600000000000001-48.8L-10.600000000000001 0L-22.800000000000004 0L-22.800000000000004-2.5Q-25.900000000000002 1 -32.2 1L-32.2 1L-34.300000000000004 1Q-46.7 1 -46.7-12.2L-46.7-12.2L-46.7-48.8L-33.300000000000004-48.8L-33.300000000000004-10.6Q-33.300000000000004-9.8 -32.75-9.2Q-32.2-8.6 -31.400000000000002-8.6L-31.400000000000002-8.6L-25.900000000000002-8.6Q-25.1-8.6 -24.550000000000004-9.2Q-24.000000000000004-9.8 -24.000000000000004-10.6L-24.000000000000004-10.6ZM 11.399999999999999-65.7L 24.7-65.7Q 37.1-65.7  37.1-52.5L 37.1-52.5L 37.1 0L 23.1 0L 23.1-21.7L 13-21.7L 13 0L-1 0L-1-52.5Q-1-65.7  11.399999999999999-65.7L 11.399999999999999-65.7ZM 13-54.2L 13-32.5L 23.1-32.5L 23.1-54.2Q 23.1-55  22.55-55.6Q 22-56.2  21.2-56.2L 21.2-56.2L 14.899999999999999-56.2Q 14.100000000000001-56.2  13.55-55.6Q 13-55  13-54.2L 13-54.2ZM 68.2-26.5L 61.5-26.5L 61.5 0L 47.5 0L 47.5-64.7L 72.4-64.7Q 84.8-64.7  84.8-51.5L 84.8-51.5L 84.8-44Q 84.8-36  79.1-33.8L 79.1-33.8Q 84.1-32  84.1-25.6L 84.1-25.6L 84.1 0L 70.1 0L 70.1-24.5Q 70.1-26.5  68.2-26.5L 68.2-26.5ZM 68.9-55.2L 61.5-55.2L 61.5-36.3L 68.9-36.3Q 69.7-36.3  70.25-36.9Q 70.8-37.5  70.8-38.3L 70.8-38.3L 70.8-53.2Q 70.8-54  70.25-54.6Q 69.7-55.2  68.9-55.2L 68.9-55.2ZM 105.70000000000002-49.8L 107.80000000000001-49.8Q 112.9-49.8  116.00000000000001-47.4L 116.00000000000001-47.4L 116.00000000000001-64.7L 129.4-64.7L 129.4 0L 118.10000000000001 0L 118.10000000000001-3.6Q 115.00000000000001 1  107.80000000000001 1L 107.80000000000001 1L 105.70000000000002 1Q 93.30000000000001 1  93.30000000000001-12.2L 93.30000000000001-12.2L 93.30000000000001-36.6Q 93.30000000000001-49.8  105.70000000000002-49.8L 105.70000000000002-49.8ZM 116.00000000000001-10.6L 116.00000000000001-10.6L 116.00000000000001-38.2Q 116.00000000000001-39  115.45000000000002-39.6Q 114.9-40.2  114.10000000000001-40.2L 114.10000000000001-40.2L 108.60000000000001-40.2Q 107.80000000000001-40.2  107.25000000000001-39.6Q 106.70000000000002-39  106.70000000000002-38.2L 106.70000000000002-38.2L 106.70000000000002-10.6Q 106.70000000000002-9.8  107.25000000000001-9.2Q 107.80000000000001-8.6  108.60000000000001-8.6L 108.60000000000001-8.6L 114.10000000000001-8.6Q 114.9-8.6  115.45000000000002-9.2Q 116.00000000000001-9.8  116.00000000000001-10.6Z"></path></svg>
